COVER ::
 
http://i.minus.com/ibdnQ0UeBY48Zj.png


SCREEN ::
 
http://i.minus.com/iEoixcAPeOuN9.png
 
http://i.minus.com/iF06uh051KzEL.png
 
http://i.minus.com/iqsKydbdDUsTc.png
 
http://i.minus.com/iblmx8HOk15hB3.png
 
http://i.minus.com/igjCUgqMx7H8W.png



General ::
Format                           : AVI
Format/Info                      : Audio Video Interleave
File size                        : 23.0 MiB
Duration                         : 1mn 43s
Overall bit rate                 : 1 872 Kbps


Video Info ::
ID                               : 0
Format                           : AVC
Format/Info                      : Advanced Video Codec
Format profile                   : High@L5.1
Format settings, CABAC           : Yes
Format settings, ReFrames        : 2 frames
Codec ID                         : H264
Duration                         : 10s 0ms
Bit rate                         : 1 540 Kbps
Width                            : 1 280 pixels
Height                           : 544 pixels
Display aspect ratio             : 2.35:1
Frame rate                       : 30.000 fps
Color space                      : YUV
Chroma subsampling               : 4:2:0
Bit depth                        : 8 bits
Scan type                        : Progressive
Bits/(Pixel*Frame)               : 0.074
Stream size                      : 19.0 MiB (82%)


Audio Info ::
ID                               : 1
Format                           : MPEG Audio
Format version                   : Version 1
Format profile                   : Layer 3
Codec ID                         : 55
Codec ID/Hint                    : MP3
Duration                         : 1mn 43s
Bit rate mode                    : Constant
Bit rate                         : 320 Kbps
Channel(s)                       : 2 channels
Sampling rate                    : 44.1 KHz
Compression mode                 : Lossy
Stream size                      : 3.94 MiB (17%)